<?xml version="1.0" standalone="no"?>
<!DOCTYPE svg PUBLIC "-//W3C//DTD SVG 20010904//EN"
 "http://www.w3.org/TR/2001/REC-SVG-20010904/DTD/svg10.dtd">
<svg version="1.0" xmlns="http://www.w3.org/2000/svg"
 width="698.000000pt" height="696.000000pt" viewBox="0 0 698.000000 696.000000"
 preserveAspectRatio="xMidYMid meet">

<g transform="translate(0.000000,696.000000) scale(0.100000,-0.100000)"
fill="#000000" stroke="none">
<path d="M3318 6469 c-430 -21 -871 -144 -1253 -352 -573 -312 -1007 -769
-1290 -1360 -145 -303 -240 -649 -275 -996 -13 -133 -13 -429 0 -562 60 -609
291 -1159 686 -1639 125 -152 240 -266 399 -396 459 -375 1004 -601 1600 -664
131 -14 452 -14 590 0 695 69 1346 380 1841 877 397 398 691 951 803 1509 48
242 55 320 55 594 0 274 -7 352 -55 594 -114 571 -408 1116 -820 1523 -168
166 -264 245 -458 374 -541 361 -1155 529 -1823 498z m1179 -1448 c451 -88
787 -438 860 -895 14 -88 14 -117 3 -230 -12 -112 -17 -133 -38 -158 -34 -41
-66 -51 -136 -43 -50 6 -66 13 -100 45 -46 43 -46 43 -31 221 19 225 -100 483
-288 625 -128 96 -262 148 -424 164 -120 12 -128 16 -172 65 -24 27 -31 45
-31 76 0 54 26 107 64 130 42 25 163 25 293 0z m-58 -476 c142 -34 290 -143
364 -266 48 -82 75 -171 83 -273 11 -139 -35 -206 -141 -206 -37 0 -52 6 -82
33 -35 33 -36 36 -44 128 -9 117 -37 193 -93 249 -56 57 -120 88 -212 101 -65
10 -83 17 -113 45 -32 29 -36 38 -36 84 0 47 3 55 37 86 35 32 42 34 105 34
38 0 97 -7 132 -15z m-1031 -125 c86 -37 130 -101 152 -221 10 -52 8 -73 -9
-149 -12 -48 -18 -95 -15 -104 11 -29 56 -24 199 24 161 55 253 72 375 73 85
0 116 -4 162 -22 70 -27 140 -101 158 -167 19 -65 8 -170 -24 -239 -45 -98
-40 -105 96 -141 113 -30 183 -70 264 -149 99 -98 142 -210 129 -339 -22 -230
-194 -469 -460 -641 -314 -205 -803 -330 -1211 -311 -712 33 -1188 254 -1368
637 -89 188 -98 370 -30 576 75 223 214 423 473 682 351 349 681 527 961 517
71 -2 108 -9 148 -26z"/>
<path d="M3160 3613 c-79 -6 -263 -42 -352 -68 -190 -55 -396 -166 -501 -271
-298 -300 -210 -708 198 -912 348 -174 837 -183 1221 -23 430 180 656 573 503
875 -39 77 -71 115 -144 171 -169 132 -383 202 -678 225 -130 10 -157 10 -247
3z m167 -277 c182 -39 324 -179 363 -357 20 -90 9 -222 -23 -293 -37 -80 -149
-190 -244 -239 -200 -104 -459 -107 -666 -8 -87 42 -131 82 -164 149 -27 54
-28 64 -28 197 0 110 4 152 19 195 52 154 164 269 313 321 129 46 310 61 430
35z"/>
<path d="M3224 2988 c-42 -20 -61 -91 -33 -124 6 -8 25 -14 41 -14 71 0 123
117 62 140 -31 12 -43 12 -70 -2z"/>
<path d="M2900 2904 c-92 -32 -150 -103 -150 -181 0 -180 297 -188 388 -12 21
41 22 51 13 87 -19 67 -101 123 -181 121 -14 0 -45 -7 -70 -15z"/>
</g>
</svg>
